<?xml version="1.0" encoding="UTF-8"?>
<svg version="1.1" xmlns="http://www.w3.org/2000/svg" width="169" height="190">
<path d="M0 0 C6.51033938 -0.0765439 13.02056118 -0.12880571 19.53125 -0.16479492 C21.74255714 -0.17981037 23.95383485 -0.20022891 26.16503906 -0.22631836 C29.35749609 -0.26302154 32.54955675 -0.2797993 35.7421875 -0.29296875 C36.71864227 -0.30845261 37.69509705 -0.32393646 38.70114136 -0.33988953 C48.07400607 -0.34214839 56.3565336 1.27708306 63.2421875 7.92578125 C69.01592224 14.73878824 71.21537172 22.14442179 71 31 C70.28380394 39.48126919 67.34264457 46.34935672 60.8125 51.9375 C58 54 58 54 56 55 C57.37418322 59.46040832 59.13756286 63.48552879 61.2578125 67.640625 C61.56572723 68.24888123 61.87364197 68.85713745 62.19088745 69.48382568 C63.16503898 71.40788704 64.14436003 73.32923839 65.125 75.25 C66.42383925 77.79458726 67.71740789 80.34175208 69.0078125 82.890625 C69.58160645 84.01500977 70.15540039 85.13939453 70.74658203 86.29785156 C72 89 72 89 72 91 C68.39610336 91.11601004 64.79268533 91.18718408 61.1875 91.25 C60.16333984 91.28351563 59.13917969 91.31703125 58.08398438 91.3515625 C57.10107422 91.36445313 56.11816406 91.37734375 55.10546875 91.390625 C54.19949951 91.41157227 53.29353027 91.43251953 52.36010742 91.45410156 C50 91 50 91 48.37695312 89.3828125 C46.69955044 86.48007311 45.26240033 83.53196111 43.86328125 80.484375 C43.43682564 79.5606308 43.43682564 79.5606308 43.00175476 78.6182251 C42.10087522 76.66416668 41.20660602 74.70716558 40.3125 72.75 C39.70030487 71.41907062 39.08767917 70.08833921 38.47460938 68.7578125 C36.97808253 65.5074847 35.48746618 62.25448599 34 59 C29.71 58.67 25.42 58.34 21 58 C21 68.89 21 79.78 21 91 C17.720625 91.020625 14.44125 91.04125 11.0625 91.0625 C10.02746338 91.071604 8.99242676 91.08070801 7.92602539 91.09008789 C7.11641357 91.09258545 6.30680176 91.09508301 5.47265625 91.09765625 C4.64000244 91.10289307 3.80734863 91.10812988 2.94946289 91.11352539 C1 91 1 91 0 90 C-0.09519368 87.2001028 -0.12553944 84.42493826 -0.11352539 81.62475586 C-0.11367142 80.74678848 -0.11381744 79.86882111 -0.1139679 78.96424866 C-0.11326844 76.04775565 -0.10547455 73.13132567 -0.09765625 70.21484375 C-0.09579218 68.19845108 -0.09436823 66.18205796 -0.09336853 64.16566467 C-0.08954244 58.84734862 -0.07971139 53.5290597 -0.06866455 48.21075439 C-0.05845238 42.78829312 -0.05387133 37.36582748 -0.04882812 31.94335938 C-0.0380892 21.29556097 -0.02101169 10.64778274 0 0 Z M21 18 C21 25.26 21 32.52 21 40 C24.91707941 40.08085714 28.83249359 40.14043614 32.75 40.1875 C33.86117187 40.21263672 34.97234375 40.23777344 36.1171875 40.26367188 C37.72207031 40.27817383 37.72207031 40.27817383 39.359375 40.29296875 C40.34389648 40.3086792 41.32841797 40.32438965 42.34277344 40.34057617 C45.42285986 39.94580214 46.75501086 39.10297902 49 37 C50.62545307 33.3427306 50.44573466 28.93341289 50 25 C48.36312815 21.41447119 47.31027417 20.20684945 44 18 C41.48176099 17.7242706 41.48176099 17.7242706 38.67578125 17.8046875 C37.64775391 17.81113281 36.61972656 17.81757812 35.56054688 17.82421875 C34.48869141 17.84097656 33.41683594 17.85773438 32.3125 17.875 C31.22904297 17.88402344 30.14558594 17.89304687 29.02929688 17.90234375 C26.35277052 17.92592548 23.67635759 17.96179664 21 18 Z " fill="#000000" transform="translate(26,91)"/>
<path d="M0 0 C0.63953613 0.42764648 1.27907227 0.85529297 1.93798828 1.29589844 C8.97119777 6.04704634 15.56368785 11.11866937 21.76953125 16.9296875 C23.80592293 18.81985841 25.90821556 20.56029222 28.0625 22.3125 C36.31332015 29.52569165 44.13913724 39.6211763 45.4375 50.75 C44.94886428 54.37986533 44.34268101 56.18878279 42 59 C32.08571749 65.1688869 18.76777101 63.42403595 7.83984375 60.88671875 C1.39513266 59.25918617 -4.82358031 57.47056788 -11 55 C-11 50.38 -11 45.76 -11 41 C-6.51774642 41.41695382 -2.63852524 42.42240752 1.625 43.875 C10.84148152 46.83551106 20.42171801 47.82088374 30 49 C22.74618664 38.24054431 15.29311572 29.94556301 5 22 C4.46407227 21.57847656 3.92814453 21.15695313 3.37597656 20.72265625 C-21.47392325 1.25858598 -60.02006468 -22.07188218 -92.6875 -21.125 C-93.51636719 -21.10695313 -94.34523438 -21.08890625 -95.19921875 -21.0703125 C-95.79347656 -21.04710937 -96.38773438 -21.02390625 -97 -21 C-92.68484751 -13.37459354 -86.87261597 -7.65527468 -80.6328125 -1.625 C-79.32957031 -0.325625 -79.32957031 -0.325625 -78 1 C-78 1.33 -78 1.66 -78 2 C-95.27451998 3.61909704 -95.27451998 3.61909704 -101.15625 0.125 C-103.51266305 -2.45737047 -105.27079753 -4.96456545 -107 -8 C-107.52722656 -8.86109375 -108.05445312 -9.7221875 -108.59765625 -10.609375 C-111.42672313 -15.68435849 -113 -20.17724146 -113 -26 C-111.70545498 -30.03593448 -110.71854983 -31.5470012 -107.125 -33.8125 C-74.32613885 -46.27606724 -26.40009869 -17.72549258 0 0 Z " fill="#000000" transform="translate(118,78)"/>
</svg>
